<?xml version="1.0"?>
<svg version="1.1" xmlns="http://www.w3.org/2000/svg" width="60px" height="36px" style=""><path fill="#244d4d" d="M4.24,16.32l1.68,0c2.08,0,3.52,0.88,3.52,2.768c0,1.392-0.656,2.24-1.92,2.64c1.504,0.432,2.288,1.328,2.288,2.56c0,2.352-1.568,3.312-4.16,3.312l-5.088,0l0-1.36l1.2-0.48l0-7.52l-1.2-0.48l0-1.36z M4.24,20.928l0.928,0c1.168,0,1.792-0.496,1.792-1.488c0-0.832-0.592-1.2-1.36-1.2l-1.36,0l0,2.688z M4.24,25.68l1.328,0c1.12,0,1.712-0.512,1.712-1.392c0-1.168-0.672-1.68-2.112-1.68l-0.928,0l0,3.072z M23.52816,26.24l0,1.36l-5.088,0l0-1.36l1.2-0.432l-0.384-1.168l-3.552,0l-0.4,1.152l1.248,0.448l0,1.36l-4.832,0l0-1.36l1.168-0.448l3.52-9.424l2.56-0.048l3.44,9.472z M18.72816,22.928l-1.2-3.792l-1.264,3.792l2.464,0z M33.15232,19.76l-0.4-1.376s-0.752-0.256-1.808-0.256c-1.712,0-2.672,1.248-2.672,3.92c0,2.592,1.008,3.712,2.72,3.712c0.832,0,1.76-0.288,1.76-0.288l0-2.016l-1.2-0.368l0-1.312l4.608-0.08l0,1.392l-1.088,0.368l0,3.264s-1.648,1.072-4.352,1.072c-3.248,0-5.12-1.952-5.12-5.664c0-3.76,2.112-6,5.392-6c1.936,0,3.728,0.752,3.728,0.752l-0.08,2.88l-1.488,0z M38.31248,25.92l5.68-7.68l-3.36,0l-0.4,1.44l-1.52,0l0-3.36l8.48,0l0,1.808l-5.568,7.552l3.648,0l0.352-1.6l1.52,0l0,3.52l-8.832,0l0-1.68z"/><path fill="#" d=""/></svg>
