<?xml version="1.0"?>
<svg version="1.1" xmlns="http://www.w3.org/2000/svg" width="78px" height="36px" style=""><path fill="#244d4d" d="M6.36,15.48l2.52,0c3.12,0,5.28,1.32,5.28,4.152c0,2.088-0.984,3.36-2.88,3.96c2.256,0.648,3.432,1.992,3.432,3.84c0,3.528-2.352,4.968-6.24,4.968l-7.632,0l0-2.04l1.8-0.72l0-11.28l-1.8-0.72l0-2.04z M6.36,22.392l1.392,0c1.752,0,2.688-0.744,2.688-2.232c0-1.248-0.888-1.8-2.04-1.8l-2.04,0l0,4.032z M6.36,29.52l1.992,0c1.68,0,2.568-0.768,2.568-2.088c0-1.752-1.008-2.52-3.168-2.52l-1.392,0l0,4.608z M35.29224,30.36l0,2.04l-7.632,0l0-2.04l1.8-0.648l-0.576-1.752l-5.328,0l-0.6,1.728l1.872,0.672l0,2.04l-7.248,0l0-2.04l1.752-0.672l5.28-14.136l3.84-0.072l5.16,14.208z M28.09224,25.392l-1.8-5.688l-1.896,5.688l3.696,0z M49.72848,20.64l-0.6-2.064s-1.128-0.384-2.712-0.384c-2.568,0-4.008,1.872-4.008,5.88c0,3.888,1.512,5.568,4.08,5.568c1.248,0,2.64-0.432,2.64-0.432l0-3.024l-1.8-0.552l0-1.968l6.912-0.12l0,2.088l-1.632,0.552l0,4.896s-2.472,1.608-6.528,1.608c-4.872,0-7.68-2.928-7.68-8.496c0-5.64,3.168-9,8.088-9c2.904,0,5.592,1.128,5.592,1.128l-0.12,4.32l-2.232,0z M57.46872,29.88l8.52-11.52l-5.04,0l-0.6,2.16l-2.28,0l0-5.04l12.72,0l0,2.712l-8.352,11.328l5.472,0l0.528-2.4l2.28,0l0,5.28l-13.248,0l0-2.52z"/><path fill="#" d=""/></svg>
